<svg width="914" height="192" viewBox="0 0 914 192" xmlns="http://www.w3.org/2000/svg">
  <title>
    Artboard 2
  </title>
  <g fill="none" fill-rule="evenodd">
    <path fill="#F3F3F3" d="M0 74h914v95H0z"/>
    <text font-family="Helvetica" font-size="17" font-weight="bold" fill="#5DA5F5">
      <tspan x="24.5" y="126">Main Thread</tspan>
    </text>
    <path stroke="#EAD46F" fill="#F8E799" d="M148 97h69v44h-69z"/>
    <path d="M738.5 109.5V53.49m0 0l-3 10.8h6l-3-10.8zM182 55.11v38.578m0 0l3-10.8h-6l3 10.8z" stroke="#282828" stroke-linecap="square" fill="#282828"/>
    <text font-family="Helvetica" font-size="10" fill="#5C3817">
      <tspan x="158.259" y="115">Input event</tspan> <tspan x="163.82" y="128">handlers</tspan>
    </text>
    <path stroke="#EAD46F" fill="#F8E799" d="M219 97h69v44h-69z"/>
    <text font-family="Helvetica" font-size="10" fill="#5C3817">
      <tspan x="224.266" y="115">requestAnim-</tspan> <tspan x="228.712" y="128">ationFrame</tspan>
    </text>
    <path stroke="#69B1F5" fill="#8EC7F4" d="M290 97h69v44h-69z"/>
    <text font-family="Helvetica" font-size="10" fill="#FFF">
      <tspan x="311.938" y="115">Parse </tspan> <tspan x="311.389" y="128">HTML</tspan>
    </text>
    <path stroke="#9589C6" fill="#B1A7D6" d="M361 97h69v44h-69z"/>
    <text font-family="Helvetica" font-size="10" fill="#FFF">
      <tspan x="380.217" y="115">Recalc</tspan> <tspan x="381.884" y="128">Styles</tspan>
    </text>
    <path stroke="#9589C6" fill="#B1A7D6" d="M432 97h69v44h-69z"/>
    <text font-family="Helvetica" font-size="10" fill="#FFF">
      <tspan x="451.488" y="122">Layout</tspan>
    </text>
    <path stroke="#9589C6" fill="#B1A7D6" d="M503 97h69v44h-69z"/>
    <text font-family="Helvetica" font-size="10" fill="#FFF">
      <tspan x="521.377" y="115">Update</tspan> <tspan x="513.594" y="128">Layer Tree</tspan>
    </text>
    <path stroke="#84A859" fill="#A3C37D" d="M574 97h69v44h-69z"/>
    <text font-family="Helvetica" font-size="10" fill="#FFF">
      <tspan x="597.104" y="122">Paint</tspan>
    </text>
    <path stroke="#84A859" fill="#A3C37D" d="M645 97h69v44h-69z"/>
    <text font-family="Helvetica" font-size="10" fill="#FFF">
      <tspan x="655.601" y="122">Composite</tspan>
    </text>
    <path stroke="#EAD46F" fill="#F8E799" d="M763 97h111v44H763z"/>
    <text font-family="Helvetica" font-size="10" fill="#5C3817">
      <tspan x="774.086" y="120">requestIdleCallback</tspan>
    </text>
    <text font-family="Helvetica" font-size="9" fill="#606060">
      <tspan x="724" y="120">commit</tspan>
    </text>
    <text font-family="Helvetica" font-size="9" fill="#606060">
      <tspan x="130.225" y="48">input data from compositor</tspan>
    </text>
    <text font-family="Helvetica" font-size="9" fill="#606060">
      <tspan x="693.722" y="32">composite &amp; paint data</tspan> <tspan x="712.489" y="44">to compositor</tspan>
    </text>
  </g>
</svg>
