<svg xmlns="http://www.w3.org/2000/svg" xmlns:xlink="http://www.w3.org/1999/xlink" width="360" height="205" viewBox="-72 -23.757 360 205" overflow="visible"><defs><linearGradient xlink:href="#a" id="f" gradientUnits="userSpaceOnUse" x1="194.532" y1="95.107" x2="194.532"/><linearGradient xlink:href="#b" id="g" gradientUnits="userSpaceOnUse" x1="229.618" y1="116.208" x2="229.618" y2="164.463"/><linearGradient xlink:href="#c" id="h" gradientUnits="userSpaceOnUse" x1="43.99" y1="115.439" x2="43.99" y2="165.231"/><linearGradient xlink:href="#d" id="i" gradientUnits="userSpaceOnUse" x1="311.285" y1="115.719" x2="311.285" y2="165.282"/><linearGradient xlink:href="#e" id="j" gradientUnits="userSpaceOnUse" x1="129.199" y1="115.579" x2="129.199" y2="204.486"/></defs><linearGradient id="a" gradientUnits="userSpaceOnUse" x1="194.532" y1="95.107" x2="194.532"><stop offset=".006" stop-color="#8E8E8E"/><stop offset="1" stop-color="#B5B5B5"/></linearGradient><linearGradient id="b" gradientUnits="userSpaceOnUse" x1="229.618" y1="116.208" x2="229.618" y2="164.463"><stop offset=".006" stop-color="#494748"/><stop offset="1"/></linearGradient><linearGradient id="c" gradientUnits="userSpaceOnUse" x1="43.99" y1="115.439" x2="43.99" y2="165.231"><stop offset=".006" stop-color="#494748"/><stop offset="1"/></linearGradient><linearGradient id="d" gradientUnits="userSpaceOnUse" x1="311.285" y1="115.719" x2="311.285" y2="165.282"><stop offset=".006" stop-color="#494748"/><stop offset="1"/></linearGradient><linearGradient id="e" gradientUnits="userSpaceOnUse" x1="129.199" y1="115.579" x2="129.199" y2="204.486"><stop offset=".006" stop-color="#494748"/><stop offset="1"/></linearGradient><path d="M257.355 13.996c-7.412-6.17-18.822-10.3-34.202-12.408L211.85 37.523c-.243 1.318-.663 2.815-1.314 4.54-1.153 2.883-2.542 5.258-4.174 7.127-1.634 1.874-3.463 3.335-5.49 4.4-2.027 1.06-4.23 1.79-6.613 2.193-2.383.4-4.848.526-7.394.378-2.55-.147-4.717-.494-6.5-1.04-1.787-.547-3.43-1.453-4.926-2.72-1.107-1.246-1.75-2.88-1.927-4.903-.177-2.024.313-4.527 1.47-7.51 1.036-2.59 2.346-4.85 3.934-6.77 1.587-1.92 3.443-3.41 5.565-4.467 2.027-1.06 4.206-1.768 6.54-2.125 2.326-.354 4.914-.448 7.755-.283 2.352.14 4.542.485 6.574 1.048.965.265 1.81.613 2.543 1.033L216.57.833c-2.142-.203-4.333-.38-6.61-.51-21.9-1.28-40.307 1.25-55.228 7.575-14.918 6.33-24.865 15.715-29.833 28.154-1.492 3.814-2.293 7.408-2.41 10.785l-.01-.005c-1.427 24.463 14.294 38.245 24.006 44.373 3.897 2.61 7.362 3.9 7.362 3.9l4.45-14.224 1.317-3.495c5.86 1.108 12.375 1.88 19.573 2.298 22.053 1.286 40.54-1.232 55.458-7.564 14.916-6.326 24.78-15.64 29.59-27.943 4.807-12.295 2.515-22.357-6.88-30.18z" fill="url(#f)" transform="translate(-72.002 -23.243)"/><path d="M269.53 139.5c-2.51 7.717-8.23 13.806-17.155 18.27-8.926 4.462-20.223 6.693-33.89 6.693-13.485 0-23.293-2.208-29.43-6.626-6.137-4.415-7.905-10.528-5.3-18.338l7.53-23.292h25.663l-7.252 23.15c-.93 2.884-1.232 5.28-.906 7.184.326 1.907 1.046 3.417 2.162 4.533 1.394 1.113 2.95 1.88 4.672 2.3 1.72.418 3.788.628 6.207.628 2.418 0 4.743-.255 6.975-.77 2.23-.51 4.275-1.322 6.138-2.437 1.858-1.116 3.508-2.602 4.95-4.463 1.44-1.86 2.627-4.186 3.558-6.974l7.533-23.152h25.663l-7.115 23.29z" fill="url(#g)" transform="translate(-72.002 -23.243)"/><path d="M86.875 140.404c2.51-7.717.743-13.808-5.3-18.27-6.045-4.464-15.9-6.695-29.568-6.695-13.483 0-24.686 2.21-33.61 6.624-8.93 4.417-14.694 10.53-17.296 18.34-2.51 7.72-.72 13.786 5.37 18.2 6.09 4.42 15.923 6.627 29.5 6.627 13.574 0 24.825-2.207 33.752-6.625 8.924-4.415 14.642-10.48 17.153-18.2zm-26.082.14c-.93 2.978-2.07 5.3-3.417 6.974-1.35 1.675-3.046 3.116-5.09 4.323-1.768 1.117-3.765 1.884-5.997 2.303-2.233.42-4.464.627-6.697.627-2.697 0-5-.23-6.903-.696-1.907-.465-3.417-1.256-4.533-2.37-1.21-1.117-1.906-2.627-2.092-4.534-.188-1.904.14-4.114.977-6.625.93-2.88 2.16-5.275 3.696-7.183 1.534-1.904 3.23-3.417 5.09-4.533 2.138-1.116 4.206-1.883 6.207-2.302 2-.42 4.207-.627 6.625-.627 2.416 0 4.603.258 6.555.768 1.953.512 3.486 1.325 4.603 2.44 1.115 1.116 1.79 2.605 2.02 4.463.232 1.86-.116 4.186-1.045 6.974z" fill="url(#h)" transform="translate(-72.002 -23.243)"/><path d="M310.14 126.807c2.928-.698 9.04-1.046 18.34-1.046 4.832 0 9.505.488 14.017 1.466 4.508.976 9.042 2.21 13.598 3.696L360 119.066c-2.698-.744-6.625-1.487-11.787-2.23-5.16-.745-10.67-1.117-16.526-1.117-17.574 0-30.405 1.512-38.493 4.532-8.09 3.022-12.88 6.812-14.366 11.366-1.115 3.44-.348 6.346 2.302 8.717 2.65 2.37 7.322 4.115 14.016 5.23 2.51.466 6.624.837 12.343 1.116 5.717.28 9.46.558 11.227.837 3.717.373 6.205.837 7.46 1.396 1.255.558 1.696 1.394 1.326 2.51-.467 1.304-1.976 2.28-4.533 2.93-2.56.65-6.3.976-11.227.976-.77 0-1.513-.004-2.24-.008-1.847-.1-3.86-.272-5.792-.476-2.06-.22-4.117-.485-6.16-.795-4.09-.62-8.133-1.418-12.06-2.438-3.92-1.022-7.733-2.267-11.26-3.813-.473-.21-.93-.434-1.393-.655-2.476 3.98-5.905 7.45-10.27 10.396 2.26 1.086 4.54 1.977 6.807 2.743 4.52 1.506 9.034 2.52 13.525 3.266 4.493.74 8.968 1.202 13.43 1.47 2.23.134 4.46.216 6.69.25 1.967.025 3.883.02 5.903-.046 12.216-.072 22.318-1.53 30.294-4.386 8.18-2.93 13.062-6.81 14.644-11.645 1.117-3.35.442-6.138-2.02-8.37-2.466-2.23-6.813-3.856-13.04-4.88-2.884-.372-5.77-.72-8.648-1.047-2.884-.324-5.533-.628-7.95-.906-9.578-.65-14.925-1.255-16.04-1.813-1.116-.558-1.488-1.394-1.116-2.51.467-1.21 2.164-2.164 5.094-2.86z" fill="url(#i)" transform="translate(-72.002 -23.243)"/><path d="M172.838 122.204c-6.09-4.415-15.924-6.625-29.5-6.625s-24.825 2.21-33.75 6.624c-8.926 4.417-14.4 10.415-16.91 18.13l-.106.35-12.692 39.19c-5.26 17.63 17.526 24.612 17.526 24.612l7.58-24.612.656-2.106c.592-1.982 1.192-3.964 1.78-5.948l1.687-5.53c.602-1.833 1.206-3.663 1.85-5.482l3.978-10.875 1.993-5.436 1.43-3.718c.05-.173.1-.34.155-.515.836-2.51 1.953-4.718 3.347-6.624 1.396-1.903 3.07-3.416 5.02-4.532 1.86-1.115 3.883-1.904 6.068-2.37 2.183-.465 4.625-.697 7.322-.697 2.23 0 4.325.21 6.277.628 1.95.42 3.437 1.186 4.462 2.3 1.3 1.21 2.068 2.65 2.3 4.324.23 1.675-.117 4-1.046 6.974-.93 2.79-2.116 5.116-3.557 6.974-1.443 1.862-3.092 3.348-4.952 4.464-1.86 1.115-3.905 1.93-6.136 2.44-2.23.512-4.558.767-6.973.767-2.42 0-4.488-.207-6.208-.626-1.72-.42-3.326-1.186-4.812-2.302-.112-.112-.2-.247-.305-.366l-3.674 10.658c-.205.613-.402 1.228-.6 1.842 3.48.708 7.507 1.13 12.11 1.256 13.67 0 24.966-2.23 33.894-6.694 8.926-4.464 14.643-10.552 17.154-18.27 2.51-7.72.718-13.787-5.37-18.204z" fill="url(#j)" transform="translate(-72.002 -23.243)"/></svg>
